<svg xmlns="http://www.w3.org/2000/svg" viewBox="0 0 1793.43 392.53"><title>2Asset 3</title><g id="Layer_2" data-name="Layer 2"><g id="Layer_1-2" data-name="Layer 1"><path d="M48,2.66H94.7l48,239.72H102.1L92.63,187H50.91l-9.77,55.34H0Zm40,156.56L71.62,58.6,55.34,159.22Z" style="fill:#253f8e"/><path d="M164,71.32h38.77V86.41q17.16-18,40.25-18a30.19,30.19,0,0,1,17.76,5.18q7.39,5.19,10.95,15.54,17.76-20.72,43.21-20.72,14.21,0,22.93,10.36t8.73,29.89V242.38H308.08V112.46q0-9.46-3.11-13.32t-9.32-3.84A25.4,25.4,0,0,0,285.15,98a36.24,36.24,0,0,0-10.51,7.4v137H236.46V112.46q0-9.46-3.25-13.32c-2.18-2.56-5.33-3.84-9.48-3.84A24.46,24.46,0,0,0,213.38,98a41.45,41.45,0,0,0-10.66,7.4v137H164Z" style="fill:#253f8e"/><path d="M386.5,229.21q-13.31-15.83-13.31-46.91V131.4q0-31.37,13.46-47.06t41.58-15.68q29,0,41,16.27t12,49.14v24.56H413.14v33.74q0,12.44,3.7,18t11.69,5.63q7.7,0,11.1-5.48t3.4-16.72v-14.5h37.88v11.83q0,26.35-13.31,40.11t-39.37,13.76Q399.82,245.05,386.5,229.21ZM443,138.8V122.52q0-13.32-3.25-19.08t-11.55-5.78q-8.58,0-11.84,6.22T413.14,127V138.8Z" style="fill:#253f8e"/><path d="M509.32,71.32h40.25V97.66Q558.15,82.57,567,75.91a32.25,32.25,0,0,1,19.83-6.66,26.81,26.81,0,0,1,6.22.59v41.74Q583.6,108,576.51,108q-16,0-26.94,16.57V242.38H509.32Z" style="fill:#253f8e"/><path d="M614.09,10.65h40.25V44.1H614.09Zm0,60.67h40.25V242.38H614.09Z" style="fill:#253f8e"/><path d="M696.06,228.92q-13-16.14-13-46.32V131.1q0-30.46,13-46.46t41.73-16q27.23,0,39.81,13t12.57,39.66v14.2H752.29V120.45q0-13.31-3.1-18.35t-11.1-5q-8.6,0-11.69,6.22t-3.11,22.79v62.73q0,16,3.4,21.91t11.4,5.92q8.28,0,11.24-5.48t3-17.61V175.2h37.88v16.28q0,26.34-12.72,40t-39.66,13.61Q709.08,245.05,696.06,228.92Z" style="fill:#253f8e"/><path d="M830.57,239.13a39.86,39.86,0,0,1-13-15.24A43.4,43.4,0,0,1,813,204.5q0-19.81,9.32-32.7a65.11,65.11,0,0,1,23.09-20,357,357,0,0,1,36.55-15.69V121.34q0-11.84-2.81-17.31t-10.8-5.48q-13.62,0-14.21,18.94l-.59,10.36-38.18-1.48q.88-29.59,14.65-43.65t41.58-14.06q25.16,0,37.29,13.76T921,121.34v79a343.6,343.6,0,0,0,3,42h-36.1q-3-16-4.15-24.56a43.25,43.25,0,0,1-12,19.38Q863.27,245,850,245.05A33,33,0,0,1,830.57,239.13Zm43.8-27.53a36.51,36.51,0,0,0,7.55-7.69V156q-15.69,9.17-23.38,17.6t-7.7,21.17q0,9.47,3.7,14.94a11.68,11.68,0,0,0,10.21,5.48A15.49,15.49,0,0,0,874.37,211.6Z" style="fill:#253f8e"/><path d="M950.58,71.32h40.25V88.19q20.42-19.53,41.43-19.53,14.49,0,21.75,10.65t7.25,26.93V242.38H1021V114.23q0-8.26-2.51-12.13t-9-3.85q-7.1,0-18.64,8.29V242.38H950.58Z" style="fill:#253f8e"/><path d="M1177.13,227.29q-16.14-18.34-17.61-54.75l37.59-7.4q.89,22.79,7.25,34.77t20,12q10.07,0,15-6.07t4.88-16.43q0-14.19-6.36-24.11t-20-21.76l-30.19-26.33q-13.91-11.83-20.86-25.46t-7-32.55q0-28.11,16.42-43.65T1221.67,0q31.08,0,44.54,17.61t15.54,47.5l-37.59,6.51q-.89-19.53-5.48-29.45t-17.9-9.91q-9.46,0-14.8,6.36t-5.33,16.13q0,11.53,4.6,19.39t14.94,16.71l29.89,26.35q16.86,14.51,26.34,31.07t9.47,38.48q0,17.16-7.55,30.48a53.81,53.81,0,0,1-21.16,20.86q-13.62,7.54-31.37,7.55Q1193.24,245.64,1177.13,227.29Z" style="fill:#f9a11e"/><path d="M1325.4,233.21q-9.63-11.25-9.62-33.44V97.66h-17.17V71.32h17.17V20.12h40.55v51.2h25.74V97.66h-25.74v98.55c0,5.73,1.22,9.87,3.69,12.44s6.36,3.84,11.69,3.84a55.26,55.26,0,0,0,12.43-1.18v31.07a149.76,149.76,0,0,1-25.75,2.07Q1335,244.45,1325.4,233.21Z" style="fill:#f9a11e"/><path d="M1413.14,234.39q-7.11-10.65-7.11-26.93V71.32h40V200.06q0,8,2.67,12.13t9.17,4.15q6.81,0,18.06-8v-137h40.24V242.38h-40.24V226.1q-19.85,19-41.14,19Q1420.24,245.05,1413.14,234.39Z" style="fill:#f9a11e"/><path d="M1554.75,230.4q-10.21-14.65-10.22-46.32V131.7q0-29,9.62-46t31.23-17q16.56,0,30.78,13.61V2.66h40.54V242.38h-40.54V230.25Q1602,245,1585.67,245.05,1565,245.05,1554.75,230.4Zm61.41-18.8V101.81a26.76,26.76,0,0,0-16-5.62q-15.4,0-15.39,26.92V187q0,14.51,3.25,22.35t12.14,7.84Q1607.86,217.23,1616.16,211.6Z" style="fill:#f9a11e"/><path d="M1688.67,259.84q16,0,22.64-2.81t6.65-10.8q0-5.32-6.21-30.18L1674.16,71.32h39.07l22.2,113.06,19.23-113.06h38.77l-40,177.87q-5,21.6-19.09,30.63t-38,9h-7.69Z" style="fill:#f9a11e"/><path d="M233.37,349.82h34.15a62.14,62.14,0,0,1-1.31,15.33,35.09,35.09,0,0,1-7.18,13.6,40,40,0,0,1-30.34,13.7,42,42,0,0,1-42.19-42.19c0-12,4.13-22.08,12.4-30.24a41.26,41.26,0,0,1,30.34-12.39c14,0,25.66,5.87,34.69,17.72l-6.64,6.2c-7.28-10.33-16.74-15.44-28.16-15.44a31.88,31.88,0,0,0-23.82,10,33.78,33.78,0,0,0-9.67,24.26A33.15,33.15,0,0,0,205.31,374c6.53,6.64,14.25,10,23.17,10a30.87,30.87,0,0,0,20-7.07c6.19-4.9,9.24-11.09,9.24-18.6H233.37Z" style="fill:#808083"/><path d="M288.71,339.93v5.54h.22c3.48-4.68,7.29-7,11.31-7a15.78,15.78,0,0,1,7.83,2.39l-4.13,7.94q-3.44-2.28-5.22-2.28c-6.64,0-10,6.31-10,18.92V391H280V339.93Z" style="fill:#808083"/><path d="M321.22,367.33A17.59,17.59,0,0,0,326,379.62a16.15,16.15,0,0,0,12,4.78c6.42,0,11.64-3.48,15.55-10.55l7.39,4.24c-5.11,9.57-13,14.36-23.59,14.36-7.5,0-13.6-2.5-18.16-7.5s-6.85-11.31-6.85-18.82c0-7.93,2.17-14.35,6.41-19.46,4.46-5.44,10.66-8.16,18.38-8.16,7.94,0,14.14,2.94,18.59,8.7,4.25,5.33,6.1,12.07,5.66,20.12Zm31-7.4c-1.2-7.5-7.51-13.37-15-13.37a15.49,15.49,0,0,0-10.33,3.91,14.77,14.77,0,0,0-5.22,9.46Z" style="fill:#808083"/><path d="M420,339.93V391h-8.7V384H411a21.35,21.35,0,0,1-17.61,8.48,22.4,22.4,0,0,1-17.84-8.16c-4.46-5.11-6.63-11.31-6.63-18.7,0-7.61,2.17-13.92,6.52-19,4.57-5.33,10.55-8.05,18.06-8.05a21.2,21.2,0,0,1,17.5,8.7h.22v-7.28ZM382.44,352a19.21,19.21,0,0,0-4.56,12.94,20.89,20.89,0,0,0,4.35,13.48,15,15,0,0,0,12.39,6,15.75,15.75,0,0,0,12.73-5.76c2.93-3.59,4.34-8.05,4.34-13.59,0-5.33-1.52-9.68-4.67-13.16s-7.29-5.33-12.5-5.33A15.42,15.42,0,0,0,382.44,352Z" style="fill:#808083"/><path d="M445.18,348V391h-8.7V348h-5.33v-8h5.33V321.55h8.7v18.38h9.14v8Z" style="fill:#808083"/><path d="M517.38,317.52V391h-9.13V317.52H488.46V309h48.93v8.48Z" style="fill:#808083"/><path d="M551.09,367.33a17.58,17.58,0,0,0,4.78,12.29,16.17,16.17,0,0,0,12,4.78c6.41,0,11.63-3.48,15.55-10.55l7.39,4.24c-5.11,9.57-13,14.36-23.6,14.36-7.5,0-13.59-2.5-18.16-7.5s-6.85-11.31-6.85-18.82c0-7.93,2.18-14.35,6.42-19.46,4.46-5.44,10.65-8.16,18.37-8.16,7.94,0,14.14,2.94,18.6,8.7,4.24,5.33,6.09,12.07,5.65,20.12Zm31-7.4c-1.2-7.5-7.5-13.37-15-13.37a15.53,15.53,0,0,0-10.33,3.91,14.86,14.86,0,0,0-5.22,9.46Z" style="fill:#808083"/><path d="M649.82,339.93V391h-8.7V384h-.21a21.36,21.36,0,0,1-17.62,8.48,22.36,22.36,0,0,1-17.83-8.16c-4.46-5.11-6.64-11.31-6.64-18.7,0-7.61,2.18-13.92,6.53-19,4.56-5.33,10.55-8.05,18-8.05a21.2,21.2,0,0,1,17.51,8.7h.21v-7.28ZM612.31,352a19.17,19.17,0,0,0-4.57,12.94,20.89,20.89,0,0,0,4.35,13.48,15,15,0,0,0,12.4,6,15.73,15.73,0,0,0,12.72-5.76c2.94-3.59,4.35-8.05,4.35-13.59,0-5.33-1.52-9.68-4.68-13.16s-7.28-5.33-12.5-5.33A15.38,15.38,0,0,0,612.31,352Z" style="fill:#808083"/><path d="M703.86,355.15h-.21c-4.46-5.76-9.79-8.59-15.88-8.59a16.8,16.8,0,0,0-12.94,5.54,18.84,18.84,0,0,0-5.11,13.38,19.31,19.31,0,0,0,4.78,13.27,16.34,16.34,0,0,0,12.84,5.65q9.95,0,16.63-8.81h.22v11.64a28.4,28.4,0,0,1-16.2,5.22c-7.83,0-14.36-2.5-19.47-7.61s-7.72-11.53-7.72-19.36a25.83,25.83,0,0,1,7.83-19.25,27,27,0,0,1,19.47-7.72,26.74,26.74,0,0,1,15.76,5.11Z" style="fill:#808083"/><path d="M717.67,301.32h8.7l.22,44.8a17.17,17.17,0,0,1,14.57-7.61c11.63,0,17.4,7.4,17.4,22.18V391h-8.7V362.22c0-5.11-.55-8.81-1.63-11-1.52-3.16-4.57-4.68-9.14-4.68-5.33,0-9,2.18-10.87,6.63-1.2,2.94-1.85,7.4-1.85,13.59V391h-8.7Z" style="fill:#808083"/><path d="M779.43,367.33a17.54,17.54,0,0,0,4.79,12.29,16.15,16.15,0,0,0,12,4.78c6.42,0,11.64-3.48,15.55-10.55l7.4,4.24c-5.12,9.57-13,14.36-23.6,14.36-7.5,0-13.59-2.5-18.16-7.5s-6.86-11.31-6.86-18.82c0-7.93,2.18-14.35,6.42-19.46,4.46-5.44,10.66-8.16,18.38-8.16,7.94,0,14.14,2.94,18.6,8.7,4.24,5.33,6.08,12.07,5.65,20.12Zm31-7.4c-1.2-7.5-7.51-13.37-15-13.37a15.49,15.49,0,0,0-10.33,3.91,14.77,14.77,0,0,0-5.22,9.46Z" style="fill:#808083"/><path d="M839.78,339.93v5.54H840c3.48-4.68,7.28-7,11.31-7a15.78,15.78,0,0,1,7.83,2.39L855,348.84q-3.42-2.28-5.21-2.28c-6.64,0-10,6.31-10,18.92V391h-8.7V339.93Z" style="fill:#808083"/><path d="M936.84,386.25a6.09,6.09,0,1,1-12.18,0,6.09,6.09,0,0,1,12.18,0Z" style="fill:#808083"/><path d="M997.84,349.82H1032a62.14,62.14,0,0,1-1.31,15.33,35.09,35.09,0,0,1-7.18,13.6,40,40,0,0,1-30.34,13.7A42,42,0,0,1,951,350.26c0-12,4.13-22.08,12.4-30.24a41.27,41.27,0,0,1,30.34-12.39c14,0,25.66,5.87,34.69,17.72l-6.64,6.2c-7.28-10.33-16.74-15.44-28.16-15.44a31.88,31.88,0,0,0-23.82,10,33.79,33.79,0,0,0-9.68,24.26A33.16,33.16,0,0,0,969.78,374c6.53,6.64,14.25,10,23.17,10a30.87,30.87,0,0,0,20-7.07c6.19-4.9,9.24-11.09,9.24-18.6H997.84Z" style="fill:#808083"/><path d="M1053.18,339.93v5.54h.22c3.48-4.68,7.29-7,11.31-7a15.78,15.78,0,0,1,7.83,2.39l-4.13,7.94q-3.44-2.28-5.22-2.28c-6.64,0-10,6.31-10,18.92V391h-8.7V339.93Z" style="fill:#808083"/><path d="M1085.69,367.33a17.54,17.54,0,0,0,4.79,12.29,16.15,16.15,0,0,0,12,4.78c6.42,0,11.63-3.48,15.55-10.55l7.39,4.24c-5.11,9.57-13,14.36-23.59,14.36-7.51,0-13.6-2.5-18.16-7.5s-6.85-11.31-6.85-18.82c0-7.93,2.17-14.35,6.41-19.46,4.46-5.44,10.66-8.16,18.38-8.16,7.94,0,14.14,2.94,18.59,8.7,4.25,5.33,6.1,12.07,5.66,20.12Zm31-7.4c-1.2-7.5-7.51-13.37-15-13.37a15.49,15.49,0,0,0-10.33,3.91,14.77,14.77,0,0,0-5.22,9.46Z" style="fill:#808083"/><path d="M1184.43,339.93V391h-8.7V384h-.22a21.35,21.35,0,0,1-17.61,8.48,22.4,22.4,0,0,1-17.84-8.16c-4.46-5.11-6.63-11.31-6.63-18.7,0-7.61,2.17-13.92,6.52-19,4.57-5.33,10.55-8.05,18.06-8.05a21.2,21.2,0,0,1,17.5,8.7h.22v-7.28ZM1146.91,352a19.22,19.22,0,0,0-4.57,12.94,20.9,20.9,0,0,0,4.36,13.48,15,15,0,0,0,12.39,6,15.71,15.71,0,0,0,12.72-5.76c2.94-3.59,4.35-8.05,4.35-13.59,0-5.33-1.52-9.68-4.67-13.16s-7.29-5.33-12.51-5.33A15.41,15.41,0,0,0,1146.91,352Z" style="fill:#808083"/><path d="M1209.65,348V391H1201V348h-5.32v-8H1201V321.55h8.7v18.38h9.14v8Z" style="fill:#808083"/><path d="M1297.29,325c-3.37-6-8.15-8.92-14.13-8.92-7.51,0-13.6,5.33-13.6,12.72,0,3.16,1.42,5.88,4.35,8.16a39.74,39.74,0,0,0,8.49,4.67l5.43,2.4c6.42,2.82,11.1,5.65,13.81,8.37a19.57,19.57,0,0,1,5.88,14.68,24.21,24.21,0,0,1-7.51,18.05,24.72,24.72,0,0,1-18.27,7.29c-13,0-22.94-8.27-25.55-21.21l8.92-2.5c1.19,8.7,7.72,15.23,16.42,15.23a17.08,17.08,0,0,0,11.85-4.57,14.71,14.71,0,0,0,5-11.42,13.13,13.13,0,0,0-4.67-10.44q-3.11-2.78-10.44-5.87l-5-2.18c-5.77-2.5-10-5.1-12.51-7.61a18.1,18.1,0,0,1-5.33-13.37,18.93,18.93,0,0,1,7-15.23,23.4,23.4,0,0,1,16-5.65q14.36,0,21.21,12.72Z" style="fill:#808083"/><path d="M1358.84,355.15h-.22c-4.46-5.76-9.79-8.59-15.88-8.59a16.8,16.8,0,0,0-12.94,5.54,18.84,18.84,0,0,0-5.11,13.38,19.27,19.27,0,0,0,4.79,13.27,16.3,16.3,0,0,0,12.83,5.65q9.95,0,16.64-8.81h.21v11.64a28.38,28.38,0,0,1-16.2,5.22c-7.83,0-14.35-2.5-19.46-7.61s-7.72-11.53-7.72-19.36a25.83,25.83,0,0,1,7.83-19.25,27.71,27.71,0,0,1,35.23-2.61Z" style="fill:#808083"/><path d="M1372.65,301.32h8.69l.22,44.8a17.17,17.17,0,0,1,14.57-7.61c11.64,0,17.4,7.4,17.4,22.18V391h-8.7V362.22c0-5.11-.54-8.81-1.63-11-1.52-3.16-4.56-4.68-9.13-4.68-5.33,0-9,2.18-10.88,6.63-1.19,2.94-1.85,7.4-1.85,13.59V391h-8.69Z" style="fill:#808083"/><path d="M1433.21,384.73a26.08,26.08,0,0,1-7.72-19.14,26.51,26.51,0,0,1,7.72-19.25,27.31,27.31,0,0,1,38.28,0,26.51,26.51,0,0,1,7.72,19.25,27.07,27.07,0,0,1-46,19.14Zm6-32.73a20.67,20.67,0,0,0,0,27,17.38,17.38,0,0,0,13.16,5.44A17.14,17.14,0,0,0,1465.4,379a20.33,20.33,0,0,0,0-27,17.14,17.14,0,0,0-13.05-5.44A17.38,17.38,0,0,0,1439.19,352Z" style="fill:#808083"/><path d="M1494.32,384.73a26.08,26.08,0,0,1-7.72-19.14,26.51,26.51,0,0,1,7.72-19.25,27.31,27.31,0,0,1,38.28,0,26.51,26.51,0,0,1,7.72,19.25,27.07,27.07,0,0,1-46,19.14Zm6-32.73a20.67,20.67,0,0,0,0,27,17.38,17.38,0,0,0,13.16,5.44,17.14,17.14,0,0,0,13-5.44,20.33,20.33,0,0,0,0-27,17.14,17.14,0,0,0-13-5.44A17.38,17.38,0,0,0,1500.3,352Z" style="fill:#808083"/><path d="M1560.76,301.32V391h-8.7V301.32Z" style="fill:#808083"/><path d="M1597.62,351.78c-1.52-3.48-3.81-5.22-7-5.22s-6.31,2.5-6.31,5.65q0,3.75,6.2,6.53a113.1,113.1,0,0,1,11.31,5.44,13.4,13.4,0,0,1,6.2,11.63,15.5,15.5,0,0,1-5,12,17.13,17.13,0,0,1-12.28,4.68c-8.59,0-15.33-4.79-18-12.94l7.72-3.26q3.75,8.14,10.44,8.15c4.78,0,8.26-3.15,8.26-7.83,0-3.15-2.17-5.76-6.63-8-2.28-1.09-5.77-2.72-10.44-4.79a12.14,12.14,0,0,1-6-10.77,13.52,13.52,0,0,1,4.35-10.43,15.46,15.46,0,0,1,10.87-4,15.23,15.23,0,0,1,13.6,9.46Z" style="fill:#808083"/><path d="M891.12,351.86c-1.52-3.48-3.81-5.22-7-5.22s-6.31,2.5-6.31,5.65q0,3.75,6.2,6.53a116.86,116.86,0,0,1,11.31,5.43,13.43,13.43,0,0,1,6.2,11.64,15.5,15.5,0,0,1-5,12,17.17,17.17,0,0,1-12.28,4.68c-8.59,0-15.33-4.79-18-12.94l7.72-3.27q3.75,8.16,10.44,8.16c4.78,0,8.26-3.15,8.26-7.83,0-3.15-2.17-5.76-6.63-8-2.28-1.08-5.76-2.71-10.44-4.78a12.16,12.16,0,0,1-6-10.77,13.51,13.51,0,0,1,4.35-10.43,15.46,15.46,0,0,1,10.87-4,15.23,15.23,0,0,1,13.6,9.46Z" style="fill:#808083"/></g></g></svg>